<svg width="18" height="18" viewBox="0 0 18 18" fill="none" xmlns="http://www.w3.org/2000/svg">
<path d="M15 0H3C2.20435 0 1.44129 0.316071 0.87868 0.87868C0.316071 1.44129 0 2.20435 0 3V15C0 15.7956 0.316071 16.5587 0.87868 17.1213C1.44129 17.6839 2.20435 18 3 18H15C15.7956 18 16.5587 17.6839 17.1213 17.1213C17.6839 16.5587 18 15.7956 18 15V3C18 2.20435 17.6839 1.44129 17.1213 0.87868C16.5587 0.316071 15.7956 0 15 0ZM16 15C16 15.2652 15.8946 15.5196 15.7071 15.7071C15.5196 15.8946 15.2652 16 15 16H3C2.73478 16 2.48043 15.8946 2.29289 15.7071C2.10536 15.5196 2 15.2652 2 15V3C2 2.73478 2.10536 2.48043 2.29289 2.29289C2.48043 2.10536 2.73478 2 3 2H15C15.2652 2 15.5196 2.10536 15.7071 2.29289C15.8946 2.48043 16 2.73478 16 3V15Z" fill="#FF3333"/>
<path d="M11.71 6.28994C11.617 6.19621 11.5064 6.12182 11.3846 6.07105C11.2627 6.02028 11.132 5.99414 11 5.99414C10.868 5.99414 10.7373 6.02028 10.6154 6.07105C10.4936 6.12182 10.383 6.19621 10.29 6.28994L9.00002 7.58994L7.71004 6.28994C7.52174 6.10164 7.26635 5.99585 7.00005 5.99585C6.73375 5.99585 6.47836 6.10164 6.29006 6.28994C6.10176 6.47824 5.99597 6.73364 5.99597 6.99994C5.99597 7.26624 6.10176 7.52164 6.29006 7.70994L7.59004 8.99994L6.29006 10.2899C6.19633 10.3829 6.12194 10.4935 6.07117 10.6154C6.0204 10.7372 5.99426 10.8679 5.99426 10.9999C5.99426 11.132 6.0204 11.2627 6.07117 11.3845C6.12194 11.5064 6.19633 11.617 6.29006 11.7099C6.38302 11.8037 6.49362 11.8781 6.61548 11.9288C6.73733 11.9796 6.86804 12.0057 7.00005 12.0057C7.13206 12.0057 7.26276 11.9796 7.38462 11.9288C7.50648 11.8781 7.61708 11.8037 7.71004 11.7099L9.00002 10.4099L10.29 11.7099C10.383 11.8037 10.4936 11.8781 10.6154 11.9288C10.7373 11.9796 10.868 12.0057 11 12.0057C11.132 12.0057 11.2627 11.9796 11.3846 11.9288C11.5064 11.8781 11.617 11.8037 11.71 11.7099C11.8037 11.617 11.8781 11.5064 11.9289 11.3845C11.9796 11.2627 12.0058 11.132 12.0058 10.9999C12.0058 10.8679 11.9796 10.7372 11.9289 10.6154C11.8781 10.4935 11.8037 10.3829 11.71 10.2899L10.41 8.99994L11.71 7.70994C11.8037 7.61698 11.8781 7.50638 11.9289 7.38452C11.9796 7.26266 12.0058 7.13195 12.0058 6.99994C12.0058 6.86793 11.9796 6.73722 11.9289 6.61536C11.8781 6.4935 11.8037 6.3829 11.71 6.28994Z" fill="#FF3333"/>
</svg>
