<svg width="48" height="48" viewBox="0 0 48 48" fill="none" xmlns="http://www.w3.org/2000/svg">
<path d="M36 6H12C10.4087 6 8.88258 6.63214 7.75736 7.75736C6.63214 8.88258 6 10.4087 6 12V36C6 37.5913 6.63214 39.1174 7.75736 40.2426C8.88258 41.3679 10.4087 42 12 42H36C37.5913 42 39.1174 41.3679 40.2426 40.2426C41.3679 39.1174 42 37.5913 42 36V12C42 10.4087 41.3679 8.88258 40.2426 7.75736C39.1174 6.63214 37.5913 6 36 6ZM29.42 26.58C29.6075 26.7659 29.7562 26.9871 29.8578 27.2308C29.9593 27.4746 30.0116 27.736 30.0116 28C30.0116 28.264 29.9593 28.5254 29.8578 28.7692C29.7562 29.0129 29.6075 29.2341 29.42 29.42C29.2341 29.6075 29.0129 29.7562 28.7692 29.8578C28.5254 29.9593 28.264 30.0116 28 30.0116C27.736 30.0116 27.4746 29.9593 27.2308 29.8578C26.9871 29.7562 26.7659 29.6075 26.58 29.42L24 26.82L21.42 29.42C21.2341 29.6075 21.0129 29.7562 20.7692 29.8578C20.5254 29.9593 20.264 30.0116 20 30.0116C19.736 30.0116 19.4746 29.9593 19.2308 29.8578C18.9871 29.7562 18.7659 29.6075 18.58 29.42C18.3925 29.2341 18.2438 29.0129 18.1422 28.7692C18.0407 28.5254 17.9884 28.264 17.9884 28C17.9884 27.736 18.0407 27.4746 18.1422 27.2308C18.2438 26.9871 18.3925 26.7659 18.58 26.58L21.18 24L18.58 21.42C18.2034 21.0434 17.9918 20.5326 17.9918 20C17.9918 19.4674 18.2034 18.9566 18.58 18.58C18.9566 18.2034 19.4674 17.9918 20 17.9918C20.5326 17.9918 21.0434 18.2034 21.42 18.58L24 21.18L26.58 18.58C26.9566 18.2034 27.4674 17.9918 28 17.9918C28.5326 17.9918 29.0434 18.2034 29.42 18.58C29.7966 18.9566 30.0082 19.4674 30.0082 20C30.0082 20.5326 29.7966 21.0434 29.42 21.42L26.82 24L29.42 26.58Z" fill="url(#paint0_linear_3_783)"/>
<defs>
<linearGradient id="paint0_linear_3_783" x1="42" y1="6" x2="20.5" y2="26.5" gradientUnits="userSpaceOnUse">
<stop stop-color="#4B5FA6"/>
<stop offset="1" stop-color="#5879EF"/>
</linearGradient>
</defs>
</svg>
