<svg width="37" height="33" viewBox="0 0 37 33" fill="none" xmlns="http://www.w3.org/2000/svg">
<path d="M35.54 23.3949H10.9792L12.2124 20.9037L32.7024 20.8669C33.3953 20.8669 33.9892 20.376 34.1129 19.6969L36.9505 3.94347C37.0247 3.53031 36.9134 3.10487 36.6412 2.7817C36.5066 2.62266 36.3388 2.49454 36.1494 2.40624C35.9599 2.31795 35.7534 2.27158 35.5441 2.27036L9.47787 2.18445L9.25516 1.14541C9.11493 0.482707 8.51276 0 7.82811 0H1.45591C1.06978 0 0.699464 0.152138 0.426427 0.422947C0.15339 0.693755 0 1.06105 0 1.44403C0 1.82701 0.15339 2.19431 0.426427 2.46512C0.699464 2.73592 1.06978 2.88806 1.45591 2.88806H6.64853L7.62189 7.47787L10.0182 18.9851L6.93312 23.9799C6.77291 24.1944 6.67641 24.4491 6.65454 24.7151C6.63268 24.9811 6.68631 25.2479 6.80939 25.4853C7.05685 25.9721 7.5559 26.2789 8.10857 26.2789H10.6987C10.1465 27.0063 9.84826 27.8924 9.84907 28.8029C9.84907 31.1183 11.7463 33 14.0807 33C16.4151 33 18.3123 31.1183 18.3123 28.8029C18.3123 27.8907 18.0071 27.003 17.4627 26.2789H24.1071C23.5549 27.0063 23.2567 27.8924 23.2575 28.8029C23.2575 31.1183 25.1547 33 27.4891 33C29.8235 33 31.7208 31.1183 31.7208 28.8029C31.7208 27.8907 31.4156 27.003 30.8711 26.2789H35.5441C36.3442 26.2789 37 25.6326 37 24.8349C36.9976 24.4523 36.8428 24.0862 36.5692 23.8164C36.2957 23.5467 35.9257 23.3952 35.54 23.3949ZM10.0842 5.03161L33.8325 5.10933L31.5063 18.0279L12.8516 18.0606L10.0842 5.03161ZM14.0807 30.0956C13.3631 30.0956 12.7774 29.5147 12.7774 28.8029C12.7774 28.0911 13.3631 27.5102 14.0807 27.5102C14.7984 27.5102 15.384 28.0911 15.384 28.8029C15.384 29.1457 15.2467 29.4745 15.0023 29.717C14.7579 29.9594 14.4264 30.0956 14.0807 30.0956ZM27.4891 30.0956C26.7715 30.0956 26.1858 29.5147 26.1858 28.8029C26.1858 28.0911 26.7715 27.5102 27.4891 27.5102C28.2068 27.5102 28.7924 28.0911 28.7924 28.8029C28.7924 29.1457 28.6551 29.4745 28.4107 29.717C28.1663 29.9594 27.8348 30.0956 27.4891 30.0956Z" fill="white"/>
</svg>
